Coordinates
version=1
nRows=17
nColumns=36
inDegrees=yes

Units are S.I. units (second, meters, Newtons, ...)
If the header above contains a line with 'inDegrees', this indicates whether rotational values are in degrees (yes) or radians (no).

endheader
time	pelvis_tilt	pelvis_list	pelvis_rotation	pelvis_tx	pelvis_ty	pelvis_tz	hip_flexion_r	hip_adduction_r	hip_rotation_r	knee_angle_r	knee_angle_r_beta	ankle_angle_r	subtalar_angle_r	mtp_angle_r	hip_flexion_l	hip_adduction_l	hip_rotation_l	knee_angle_l	knee_angle_l_beta	ankle_angle_l	subtalar_angle_l	mtp_angle_l	lumbar_extension	lumbar_bending	lumbar_rotation	arm_flex_r	arm_add_r	arm_rot_r	elbow_flex_r	pro_sup_r	arm_flex_l	arm_add_l	arm_rot_l	elbow_flex_l	pro_sup_l
      5.41666670	    -28.14165561	     -4.07643260	    -10.64112755	      1.11041204	      0.65267495	      0.14968530	     75.00394075	      6.22110640	    -18.26718782	     88.12257286	      1.53802904	     46.03600985	     18.14481867	     -7.49999987	    104.93557136	    -20.30058783	     18.77319219	     54.68265383	      0.95439235	      6.68576598	      7.31231589	     -7.49999987	    -19.55906154	     21.06910957	     13.96594178	     59.36925536	     -8.93509306	     69.58752849	    119.20491730	     96.78763547	     59.26698288	      7.70933367	     55.39995477	    108.62888398	    109.14023918
      5.43333330	    -28.52420110	     -4.10804258	    -10.92955143	      1.11010883	      0.65178550	      0.14983876	     75.51660614	      6.25867312	    -18.44742979	     88.53928238	      1.54530199	     46.19948885	     18.22624422	     -7.49999987	    105.60916836	    -20.15395076	     19.38442465	     54.81768351	      0.95674907	      7.11887144	      7.55365842	     -7.49999987	    -19.69256340	     21.24092703	     14.09250114	     59.54235479	     -9.24404186	     66.70465680	    119.66853825	     97.69347510	     59.14920054	      7.56564445	     54.82507114	    108.94265474	    109.51433401
      5.45000000	    -28.72015408	     -4.25774719	    -11.14928932	      1.11017776	      0.65123626	      0.14989007	     75.77517268	      6.38523368	    -18.67948072	     88.81686520	      1.55014673	     46.31021367	     18.33191266	     -7.49999987	    106.05939863	    -19.97611079	     20.09799147	     54.95038403	      0.95906513	      7.48638544	      7.89734405	     -7.49999987	    -20.19042027	     21.48810820	     14.62733650	     60.05135373	     -8.56978696	     69.33209655	    119.51526918	     95.36322427	     59.04423647	      7.49635687	     55.15278401	    108.91324105	    109.05099319
      5.46666670	    -28.67944721	     -4.30908476	    -11.44813019	      1.11016117	      0.64694307	      0.14924047	     75.88447243	      6.54573281	    -18.81283542	     89.15313615	      1.55601576	     46.51008736	     18.59670009	     -7.49999987	    106.39605646	    -20.02378405	     20.57797712	     55.31160566	      0.96536963	      7.92997948	      8.26125865	     -7.49999987	    -20.80792415	     21.51992409	     15.28023232	     60.54731761	     -8.65160977	     73.25227526	    119.08658231	     95.43907453	     59.14668357	      7.47971658	     55.62877771	    107.21029079	    108.97291047
      5.48333330	    -28.83133129	     -4.20251388	    -11.83274298	      1.11524426	      0.64379049	      0.14654962	     76.03931394	      6.67743420	    -18.79672929	     89.50555598	      1.56216665	     46.87098674	     19.10003076	     -7.49999987	    106.88083383	    -20.05961466	     21.00077086	     55.79528467	      0.97381142	      8.65776438	      8.75980317	     -7.49999987	    -21.02843098	     21.58075410	     15.99211480	     60.76276087	     -9.74001664	     76.29341543	    117.46604162	     95.72235003	     58.79846321	      7.63841587	     56.03067179	    105.28477783	    108.94840649
      5.50000000	    -29.16916401	     -4.17145430	    -12.04852255	      1.11536618	      0.63555845	      0.14511391	     76.55336768	      6.66771050	    -18.95947654	     90.11874861	      1.57286888	     47.16404311	     19.24279981	     -7.49999987	    107.75738511	    -19.87638130	     21.58684402	     56.46036988	      0.98541935	      9.25937059	      9.00339475	     -7.49999987	    -20.77287136	     21.90415548	     16.19825398	     61.56544414	    -10.18798545	     78.56305626	    118.09595825	     95.13027466	     58.90842037	      7.59301903	     55.98565487	    105.66360617	    108.22107695
      5.51666670	    -29.47998509	     -4.15047655	    -12.35401152	      1.11524300	      0.62849862	      0.14524210	     77.21867652	      6.83770679	    -19.09196090	     90.90551970	      1.58660063	     47.52402543	     19.25107893	     -7.49999987	    108.73802858	    -19.81115484	     22.22869188	     57.32420584	      1.00049613	      9.91498940	      9.36278199	     -7.49999987	    -20.25522663	     21.91930953	     16.56291714	     61.88968350	     -9.87755607	     78.69074141	    117.87237240	     93.34073302	     59.13668247	      7.84851712	     56.11120658	    106.32478311	    106.14010254
      5.53333330	    -29.86435459	     -4.16989719	    -12.78510115	      1.11406652	      0.62160733	      0.14643062	     78.10879749	      7.11645166	    -19.29655621	     91.84977525	      1.60308100	     47.84413618	     19.30205491	     -7.49999987	    109.86406785	    -19.82517221	     23.02698089	     58.18004873	      1.01543341	     10.59531958	      9.69589242	     -7.49999987	    -19.78967682	     21.81820973	     16.44683224	     61.94093936	     -9.34984031	     78.20983358	    117.88229437	     93.85252894	     59.25569733	      7.34689192	     55.63747276	    108.02933793	    108.95303413
      5.55000000	    -30.37164326	     -4.19626064	    -13.14191972	      1.11417124	      0.61429332	      0.14655902	     79.13730835	      7.34970670	    -19.53618906	     92.75620297	      1.61890114	     48.03005762	     19.19681665	     -7.49999987	    111.05796777	    -19.76473577	     23.91261596	     58.98641756	      1.02950720	     11.17328277	      9.84590745	     -7.49999987	    -19.32911762	     21.76924845	     16.58149294	     61.97053022	     -9.56888437	     78.55629459	    118.85974189	     93.81562761	     59.29210196	      7.22375102	     55.69684834	    108.84721434	    108.92038786
      5.56666670	    -30.67447142	     -4.19320241	    -13.49132271	      1.11396458	      0.60991019	      0.14596254	     79.85886767	      7.61644311	    -19.66392900	     93.46151823	      1.63121122	     48.23473015	     19.06432381	     -7.49999987	    111.91575151	    -19.76967073	     24.55776926	     59.63516780	      1.04083003	     11.61546609	      9.88400194	     -7.49999987	    -18.95738406	     21.58331998	     16.63306681	     62.10140366	     -9.18185252	     78.21705813	    119.44858651	     94.07681939	     59.39020122	      7.07114953	     55.22604149	    109.37235378	    109.13141313
      5.58333330	    -31.20698573	     -4.05680334	    -13.72788678	      1.11409227	      0.60953619	      0.14635158	     80.72997012	      7.72553520	    -19.72882660	     93.87917653	      1.63850073	     48.30220318	     18.79852142	     -7.49999987	    112.68536641	    -19.72139124	     25.01959799	     59.87365314	      1.04499238	     11.87700047	      9.70019951	     -7.49999987	    -18.38996347	     21.40809172	     16.39030144	     61.93526029	     -8.46977287	     77.82609847	    120.10159541	     95.28640048	     59.12161992	      7.04111692	     55.45729955	    109.92523684	    108.75648469
      5.60000000	    -31.20599839	     -4.08524759	    -13.86836461	      1.11880272	      0.60954274	      0.14253648	     80.88321568	      7.71460688	    -19.78337215	     94.19707547	      1.64404911	     48.41158245	     18.72832160	     -7.49999987	    112.78700932	    -19.65327041	     25.29103998	     60.03872677	      1.04787346	     12.10235973	      9.66413818	     -7.49999987	    -18.72762418	     21.41301368	     16.22657836	     61.80829598	     -8.03191493	     78.06313906	    120.38783405	     95.36048435	     58.51647649	      7.19877227	     55.73393123	    109.75131447	    108.79226928
      5.61666670	    -31.39835937	     -4.27238745	    -14.24679147	      1.11385618	      0.60859110	      0.14630340	     81.23082349	      8.06440724	    -20.01063419	     94.33725569	      1.64649572	     48.50908608	     18.59663735	     -7.49999987	    113.14569880	    -19.77954678	     25.88467142	     60.09137155	      1.04879229	     12.32464721	      9.58930438	     -7.49999987	    -19.09504149	     21.33471829	     16.40669338	     61.98213602	     -8.25069295	     78.16021338	    119.52694018	     95.48170189	     58.21544267	      6.89644077	     55.79035648	    108.79050551	    108.85995181
      5.63333330	    -31.62325962	     -4.70740265	    -14.54455490	      1.11833946	      0.60525858	      0.15066394	     81.47788451	      8.59462702	    -20.43493203	     94.41393786	      1.64783408	     48.58430811	     18.31587689	     -7.49999987	    113.60248049	    -19.94540482	     26.74606604	     60.13682118	      1.04958553	     12.54697825	      9.80455623	     -7.49999987	    -19.39548309	     21.50828804	     17.13563762	     61.33977804	     -8.40174116	     79.01652631	    117.98846455	     95.62665661	     57.88883687	      6.46873601	     56.27601002	    106.71609096	    108.91174854
      5.65000000	    -31.75756182	     -4.90222890	    -14.77961961	      1.12365518	      0.60215589	      0.14641008	     81.66562780	      8.89248175	    -20.64257531	     94.60082677	      1.65109590	     48.71266745	     18.21301428	     -7.49999987	    114.03193825	    -20.12379140	     27.21850169	     60.36686583	      1.05360057	     12.90383844	      9.94244903	     -7.49999987	    -19.61271205	     21.81252922	     17.70795821	     60.72932374	     -9.37306316	     80.53396805	    116.86590846	     95.75370671	     57.30460229	      6.93863413	     57.10276529	    105.32397170	    108.96431493
      5.66666670	    -32.08368588	     -5.00638548	    -14.96898783	      1.12296945	      0.60100343	      0.14633317	     82.01710724	      9.03804781	    -20.85206386	     94.75505421	      1.65378768	     48.80528911	     17.94038136	     -7.49999987	    114.54242246	    -20.12477323	     27.71201751	     60.62037229	      1.05802509	     13.29270504	      9.92748095	     -7.49999987	    -19.59578745	     22.03033064	     18.41963795	     60.69657749	    -10.02502572	     81.98421693	    116.74665726	     93.47304670	     57.16193548	      7.40441746	     57.91565864	    104.14254517	    108.99385835
      5.68333330	    -32.30671478	     -5.00396684	    -15.16235261	      1.12272129	      0.59794314	      0.14705479	     82.34337076	      9.12901788	    -20.96796317	     94.99129974	      1.65791094	     48.88796224	     17.80624087	     -7.49999987	    114.96529230	    -20.12347018	     28.08936079	     60.87403487	      1.06245234	     13.60026399	      9.80699267	     -7.49999987	    -19.54153590	     22.15168293	     19.00503322	     60.80732792	    -10.41580249	     83.00246839	    115.86519588	     92.51569351	     56.78397970	      7.47899448	     58.16009232	    103.85116534	    108.96658971
